<?xml version="1.0" encoding="UTF-8" standalone="no"?>
<svg
   height="24"
   viewBox="0 -960 960 960"
   width="24"
   version="1.1"
   id="svg1"
   sodipodi:docname="design_services_FILL0_wght400_GRAD0_opsz24.svg"
   inkscape:version="1.3.1 (91b66b0783, 2023-11-16)"
   xmlns:inkscape="http://www.inkscape.org/namespaces/inkscape"
   xmlns:sodipodi="http://sodipodi.sourceforge.net/DTD/sodipodi-0.dtd"
   xmlns:xlink="http://www.w3.org/1999/xlink"
   xmlns="http://www.w3.org/2000/svg"
   xmlns:svg="http://www.w3.org/2000/svg">
  <defs
     id="defs1">
    <linearGradient
       id="swatch1"
       inkscape:swatch="solid">
      <stop
         style="stop-color:#fbc02d;stop-opacity:1;"
         offset="0"
         id="stop1" />
    </linearGradient>
    <linearGradient
       inkscape:collect="always"
       xlink:href="#swatch1"
       id="linearGradient1"
       x1="80"
       y1="-480"
       x2="880"
       y2="-480"
       gradientUnits="userSpaceOnUse" />
    <filter
       style="color-interpolation-filters:sRGB;"
       inkscape:label="Drop Shadow"
       id="filter20"
       x="-0.065653499"
       y="-0.065653499"
       width="1.1710228"
       height="1.1579043">
      <feFlood
         result="flood"
         in="SourceGraphic"
         flood-opacity="0.650980"
         flood-color="rgb(0,0,0)"
         id="feFlood19" />
      <feGaussianBlur
         result="blur"
         in="SourceGraphic"
         stdDeviation="7.294833"
         id="feGaussianBlur19" />
      <feOffset
         result="offset"
         in="blur"
         dx="10.486322"
         dy="6.838906"
         id="feOffset19" />
      <feComposite
         result="comp1"
         operator="in"
         in="flood"
         in2="offset"
         id="feComposite19" />
      <feComposite
         result="fbSourceGraphic"
         operator="over"
         in="SourceGraphic"
         in2="comp1"
         id="feComposite20" />
      <feColorMatrix
         result="fbSourceGraphicAlpha"
         in="fbSourceGraphic"
         values="0 0 0 -1 0 0 0 0 -1 0 0 0 0 -1 0 0 0 0 1 0"
         id="feColorMatrix1" />
      <feFlood
         id="feFlood1"
         result="flood"
         in="fbSourceGraphic"
         flood-opacity="0.862745"
         flood-color="rgb(0,0,0)" />
      <feGaussianBlur
         id="feGaussianBlur1"
         result="blur"
         in="fbSourceGraphic"
         stdDeviation="7.294833" />
      <feOffset
         id="feOffset1"
         result="offset"
         in="blur"
         dx="10.486322"
         dy="6.838906" />
      <feComposite
         id="feComposite1"
         result="comp1"
         operator="in"
         in="flood"
         in2="offset" />
      <feComposite
         id="feComposite2"
         result="fbSourceGraphic"
         operator="over"
         in="fbSourceGraphic"
         in2="comp1" />
      <feColorMatrix
         result="fbSourceGraphicAlpha"
         in="fbSourceGraphic"
         values="0 0 0 -1 0 0 0 0 -1 0 0 0 0 -1 0 0 0 0 1 0"
         id="feColorMatrix11" />
      <feFlood
         id="feFlood11"
         result="flood"
         in="fbSourceGraphic"
         flood-opacity="0.760784"
         flood-color="rgb(0,0,0)" />
      <feGaussianBlur
         id="feGaussianBlur11"
         result="blur"
         in="fbSourceGraphic"
         stdDeviation="7.294833" />
      <feOffset
         id="feOffset11"
         result="offset"
         in="blur"
         dx="10.800000"
         dy="7.600000" />
      <feComposite
         id="feComposite11"
         result="comp1"
         operator="in"
         in="flood"
         in2="offset" />
      <feComposite
         id="feComposite12"
         result="comp2"
         operator="over"
         in="fbSourceGraphic"
         in2="comp1" />
    </filter>
  </defs>
  <sodipodi:namedview
     id="namedview1"
     pagecolor="#ffffff"
     bordercolor="#666666"
     borderopacity="1.0"
     inkscape:showpageshadow="2"
     inkscape:pageopacity="0.0"
     inkscape:pagecheckerboard="0"
     inkscape:deskcolor="#d1d1d1"
     inkscape:zoom="34.625"
     inkscape:cx="12"
     inkscape:cy="12"
     inkscape:window-width="1920"
     inkscape:window-height="1027"
     inkscape:window-x="-8"
     inkscape:window-y="-8"
     inkscape:window-maximized="1"
     inkscape:current-layer="svg1" />
  <path
     d="m352-522 86-87-56-57-44 44-56-56 43-44-45-45-87 87 159 158Zm328 329 87-87-45-45-44 43-56-56 43-44-57-56-86 86 158 159Zm24-567 57 57-57-57ZM290-120H120v-170l175-175L80-680l200-200 216 216 151-152q12-12 27-18t31-6q16 0 31 6t27 18l53 54q12 12 18 27t6 31q0 16-6 30.5T816-647L665-495l215 215L680-80 465-295 290-120Zm-90-80h56l392-391-57-57-391 392v56Zm420-419-29-29 57 57-28-28Z"
     id="path1"
     style="fill:url(#linearGradient1);filter:url(#filter20)" />
</svg>
