<?xml version="1.0" encoding="UTF-8" standalone="no"?>
<svg
   height="24"
   viewBox="0 -960 960 960"
   width="24"
   version="1.1"
   id="svg1"
   sodipodi:docname="event_list_FILL0_wght400_GRAD0_opsz24.svg"
   inkscape:version="1.3.1 (91b66b0783, 2023-11-16)"
   xmlns:inkscape="http://www.inkscape.org/namespaces/inkscape"
   xmlns:sodipodi="http://sodipodi.sourceforge.net/DTD/sodipodi-0.dtd"
   xmlns:xlink="http://www.w3.org/1999/xlink"
   xmlns="http://www.w3.org/2000/svg"
   xmlns:svg="http://www.w3.org/2000/svg">
  <defs
     id="defs1">
    <linearGradient
       id="swatch13"
       inkscape:swatch="solid">
      <stop
         style="stop-color:#1976d2;stop-opacity:1;"
         offset="0"
         id="stop13" />
    </linearGradient>
    <filter
       style="color-interpolation-filters:sRGB;"
       inkscape:label="Drop Shadow"
       id="filter13"
       x="-0.0218845"
       y="-0.024316111"
       width="1.057269"
       height="1.0591878">
      <feFlood
         result="flood"
         in="SourceGraphic"
         flood-opacity="0.760784"
         flood-color="rgb(0,0,0)"
         id="feFlood12" />
      <feGaussianBlur
         result="blur"
         in="SourceGraphic"
         stdDeviation="7.294833"
         id="feGaussianBlur12" />
      <feOffset
         result="offset"
         in="blur"
         dx="10.800000"
         dy="7.600000"
         id="feOffset12" />
      <feComposite
         result="comp1"
         operator="in"
         in="flood"
         in2="offset"
         id="feComposite12" />
      <feComposite
         result="comp2"
         operator="over"
         in="SourceGraphic"
         in2="comp1"
         id="feComposite13" />
    </filter>
    <linearGradient
       inkscape:collect="always"
       xlink:href="#swatch13"
       id="linearGradient13"
       x1="62.492401"
       y1="-476.2"
       x2="908.30758"
       y2="-476.2"
       gradientUnits="userSpaceOnUse" />
  </defs>
  <sodipodi:namedview
     id="namedview1"
     pagecolor="#ffffff"
     bordercolor="#666666"
     borderopacity="1.0"
     inkscape:showpageshadow="2"
     inkscape:pageopacity="0.0"
     inkscape:pagecheckerboard="0"
     inkscape:deskcolor="#d1d1d1"
     inkscape:zoom="34.625"
     inkscape:cx="12"
     inkscape:cy="12"
     inkscape:window-width="1920"
     inkscape:window-height="1027"
     inkscape:window-x="-8"
     inkscape:window-y="-8"
     inkscape:window-maximized="1"
     inkscape:current-layer="svg1" />
  <path
     d="M640-120q-33 0-56.5-23.5T560-200v-160q0-33 23.5-56.5T640-440h160q33 0 56.5 23.5T880-360v160q0 33-23.5 56.5T800-120H640Zm0-80h160v-160H640v160ZM80-240v-80h360v80H80Zm560-280q-33 0-56.5-23.5T560-600v-160q0-33 23.5-56.5T640-840h160q33 0 56.5 23.5T880-760v160q0 33-23.5 56.5T800-520H640Zm0-80h160v-160H640v160ZM80-640v-80h360v80H80Zm640 360Zm0-400Z"
     id="path1"
     style="filter:url(#filter13);fill:url(#linearGradient13)" />
</svg>
